<?xml version="1.0" encoding="UTF-8"?>
<svg version="1.1" xmlns="http://www.w3.org/2000/svg" width="750" height="750">
<path d="M0 0 C247.5 0 495 0 750 0 C750 247.5 750 495 750 750 C502.5 750 255 750 0 750 C0 502.5 0 255 0 0 Z " fill="#FEFEFE" transform="translate(0,0)"/>
<path d="M0 0 C64.02 0 128.04 0 194 0 C194 9.24 194 18.48 194 28 C185 35 185 35 181.41015625 37.7734375 C169.35482265 46.82296417 169.35482265 46.82296417 158.94404602 57.59391785 C154.85118358 60.93889384 151.84514758 60.67365556 146.71166992 60.56762695 C145.32069092 60.56872215 145.32069092 60.56872215 143.90161133 60.56983948 C140.84396373 60.56636281 137.78784941 60.52749732 134.73046875 60.48828125 C132.60769991 60.47895342 130.4849203 60.47183717 128.36213684 60.46684265 C122.78054988 60.44777064 117.19961559 60.39866736 111.61828613 60.34332275 C104.91865781 60.28313218 98.218811 60.26021507 91.51898956 60.23105621 C81.3455394 60.18260326 71.17352071 60.08678833 61 60 C61 78.81 61 97.62 61 117 C69.58 117 78.16 117 87 117 C91.91726384 117.25198277 96.68785226 117.53166333 101.5625 118.0625 C103.35046997 118.25332153 103.35046997 118.25332153 105.17456055 118.44799805 C117.52633148 119.93171637 129.20999799 123.11196951 141 127 C141.75522949 127.24089355 142.51045898 127.48178711 143.28857422 127.72998047 C178.629325 139.14011267 209.04662343 163.46449521 231 193 C231.43586426 193.58040039 231.87172852 194.16080078 232.32080078 194.75878906 C262.58210299 235.22014946 274.51801395 284.37419933 267.71142578 334.35400391 C264.29674813 356.89469527 257.89437628 377.94864433 247 398 C246.67918457 398.60537598 246.35836914 399.21075195 246.02783203 399.83447266 C229.91208235 430.17529747 203.59088468 455.01427161 174 472 C173.36465332 472.36625488 172.72930664 472.73250977 172.07470703 473.10986328 C161.12017217 479.35019277 149.93121146 483.975013 138 488 C137.30519531 488.24234375 136.61039063 488.4846875 135.89453125 488.734375 C125.43185997 492.37708453 114.97222408 494.527013 104 496 C102.70835937 496.185625 101.41671875 496.37125 100.0859375 496.5625 C93.25308846 497.28972771 86.36587208 497.22370916 79.50170898 497.24023438 C77.09908243 497.24985354 74.69734554 497.28091189 72.29492188 497.3125 C57.99950709 497.41047029 44.17106731 495.47556728 30.375 491.6875 C29.5927002 491.47585205 28.81040039 491.2642041 28.00439453 491.04614258 C-1.86718385 482.72965798 -28.5686916 467.37080241 -51 446 C-51.57008789 445.45714355 -52.14017578 444.91428711 -52.72753906 444.35498047 C-80.86026064 417.38773641 -101.69305941 381.79598325 -108 343 C-108.02266755 341.33348749 -108.02722187 339.66644434 -108 338 C-101.14985332 337.94915355 -94.29975561 337.91420492 -87.44946289 337.89013672 C-85.12066835 337.88009951 -82.79188634 337.86646686 -80.46313477 337.84912109 C-77.10950621 337.82477273 -73.75604479 337.81349385 -70.40234375 337.8046875 C-68.84881447 337.78920364 -68.84881447 337.78920364 -67.26390076 337.77340698 C-61.79506836 337.77256441 -57.11682205 337.98320958 -52 340 C-48.60182682 343.99475436 -46.96706757 348.40623058 -45.3125 353.3125 C-34.24594272 384.15926922 -12.29857028 410.7668605 17.3359375 425.296875 C29.56707219 431.05193891 41.85487291 434.98826454 55 438 C56.61068359 438.37318359 56.61068359 438.37318359 58.25390625 438.75390625 C91.46577844 445.07787126 126.64418526 435.25385627 154.43359375 416.82421875 C172.58840222 403.91965931 187.07570276 387.99118497 197 368 C197.48984375 367.06542969 197.9796875 366.13085938 198.484375 365.16796875 C207.35574189 347.35664192 211.39705294 327.65918023 211.3125 307.875 C211.31034485 307.18991364 211.3081897 306.50482727 211.30596924 305.79898071 C211.12317418 269.57121848 196.44330069 237.35080585 171.48828125 211.38671875 C145.43123005 186.36716117 110.52009283 174.39288588 74.89428711 174.65063477 C51.530514 175.13576977 30.56236995 182.20710077 10.3190918 193.73901367 C6.92715099 195.58335247 3.45332861 197.2733357 0 199 C0 133.33 0 67.66 0 0 Z " fill="#231F20" transform="translate(128,203)"/>
<path d="M0 0 C1.29679515 0.41301122 2.59367409 0.8257594 3.890625 1.23828125 C45.8062756 14.95026126 79.87923552 43.38623729 99.94873047 82.81347656 C103.41581543 90.0246268 106.23887486 97.49697864 109 105 C109.41121094 106.07121094 109.82242187 107.14242187 110.24609375 108.24609375 C123.64936049 146.68269913 119.33975923 192.27136743 102.12109375 228.6953125 C90.75088898 252.02284188 75.02411423 273.45525832 54 289 C53.00742187 289.73476563 52.01484375 290.46953125 50.9921875 291.2265625 C38.16690797 300.3964798 24.39170953 307.62204377 10 314 C8.87980469 314.515625 7.75960937 315.03125 6.60546875 315.5625 C2.56998174 317.17144823 -1.39342913 318.1904658 -5.625 319.125 C-6.36234375 319.29386719 -7.0996875 319.46273438 -7.859375 319.63671875 C-9.90417948 320.10211332 -11.94963569 320.5597499 -14 321 C-14.76127197 321.18087158 -15.52254395 321.36174316 -16.30688477 321.5480957 C-19.59242214 322.09940834 -22.719138 322.11183346 -26.05078125 322.09765625 C-26.70958786 322.0962413 -27.36839447 322.09482635 -28.04716492 322.09336853 C-30.13565762 322.087805 -32.22404011 322.07525947 -34.3125 322.0625 C-35.73502449 322.05748028 -37.15755066 322.0529182 -38.58007812 322.04882812 C-42.05342077 322.03784757 -45.52669961 322.02060835 -49 322 C-49.02474909 315.96769509 -49.04288334 309.93541985 -49.05493164 303.90307617 C-49.0599553 301.85163864 -49.06677537 299.80020468 -49.07543945 297.7487793 C-49.08759112 294.7973543 -49.09324804 291.84597673 -49.09765625 288.89453125 C-49.10281754 287.97976517 -49.10797882 287.06499908 -49.11329651 286.12251282 C-49.11366265 281.95115808 -49.06733315 278.06620692 -48 274 C-47.06655762 273.91081299 -47.06655762 273.91081299 -46.11425781 273.81982422 C-12.32320224 270.45311905 17.2395493 260.10248774 39.94140625 233.609375 C57.46178064 211.4013862 67.45372561 186.07479597 67.3125 157.625 C67.30758545 156.44325195 67.3026709 155.26150391 67.29760742 154.04394531 C67.1807245 145.32387958 66.43976229 137.41023748 64 129 C63.68289063 127.824375 63.36578125 126.64875 63.0390625 125.4375 C54.27404885 96.09646141 34.17525227 71.37795896 7.33398438 56.76513672 C-9.68120793 47.9479421 -28.57842964 43.58990222 -47.6875 43.6875 C-48.81945801 43.69168945 -49.95141602 43.69587891 -51.11767578 43.70019531 C-83.84808914 44.13778013 -110.48818579 58.52330876 -133.28125 81.27734375 C-142.18094612 90.75975807 -148.53064984 102.28915614 -154 114 C-158.89576671 112.48151665 -163.45883995 110.51858202 -168.1015625 108.375 C-168.86044769 108.02743652 -169.61933289 107.67987305 -170.4012146 107.32177734 C-172.81047609 106.2173969 -175.2177152 105.10868142 -177.625 104 C-179.24987728 103.25494064 -180.87487612 102.51014633 -182.5 101.765625 C-184.05479495 101.0523175 -185.60948605 100.33878358 -187.1640625 99.625 C-187.89017731 99.29161621 -188.61629211 98.95823242 -189.3644104 98.61474609 C-192.60116003 97.12375545 -195.82778681 95.62456699 -199 94 C-197.10632454 87.63623901 -194.64496159 81.95950636 -191.375 76.1875 C-190.93333496 75.40342773 -190.49166992 74.61935547 -190.03662109 73.81152344 C-186.18266988 67.09640987 -181.92078886 60.9912202 -177 55 C-176.54367187 54.43829102 -176.08734375 53.87658203 -175.6171875 53.29785156 C-148.73628946 20.36156406 -110.75861078 0.45122588 -69 -6 C-68.0507666 -6.17273438 -67.1015332 -6.34546875 -66.12353516 -6.5234375 C-44.6949416 -9.79283055 -20.45432547 -6.90451309 0 0 Z " fill="#F3C301" transform="translate(455,219)"/>
<path d="M0 0 C0.66 0 1.32 0 2 0 C3.28975293 6.43966402 4.57055501 12.88106208 5.84521484 19.32373047 C6.27968848 21.5142422 6.71619287 23.70435217 7.15478516 25.89404297 C7.78565049 29.04550859 8.40914579 32.19835726 9.03125 35.3515625 C9.22811401 36.32678864 9.42497803 37.30201477 9.62780762 38.30679321 C12.00653392 50.45874494 12.00653392 50.45874494 9 55.0625 C5.89097864 58.42912599 2.13920584 61.04296962 -2 63 C-2.99 63 -3.98 63 -5 63 C-5.24234375 62.27554688 -5.4846875 61.55109375 -5.734375 60.8046875 C-8.57581206 52.60823443 -11.53442938 45.83066334 -19 41 C-22.68794765 40.65749408 -22.68794765 40.65749408 -26 42 C-29.0489168 44.95056464 -29.29722554 48.11034695 -29.5625 52.1875 C-29.38007547 58.61579295 -26.98916946 63.05709807 -23 68 C-19.74306748 71.03980368 -17.18102765 72.25188732 -12.8125 72.625 C-1.60315498 72.06077122 8.08457896 62.49708734 15.9375 55.3125 C17.99504859 53.00555158 19.52759889 50.71231784 21 48 C24.83797544 49.56361962 27.1667627 52.02510083 30 55 C31.05779663 55.86455811 31.05779663 55.86455811 32.13696289 56.74658203 C34.68757059 59.83164416 34.43483729 61.7165518 34.30859375 65.6796875 C34.29219345 66.33427948 34.27579315 66.98887146 34.25889587 67.66329956 C34.19733921 69.7772707 34.10261783 71.88764779 34 74 C33.96948547 74.69355591 33.93897095 75.38711182 33.90753174 76.10168457 C33.68174898 81.11321639 33.37911764 86.11851856 33.0625 91.125 C32.97422095 92.58461198 32.88632944 94.04424744 32.79882812 95.50390625 C32.628143 98.33708016 32.44560317 101.16911862 32.25439453 104.00097656 C32.08100488 106.59346046 31.95362178 109.17481363 31.85107422 111.77246094 C31.76817139 113.48997559 31.76817139 113.48997559 31.68359375 115.2421875 C31.6467749 116.23847168 31.60995605 117.23475586 31.57202148 118.26123047 C30.84981448 121.71907006 29.39743198 123.44905169 27 126 C22.04327775 129.11513044 16.7812623 130.50797768 11 131 C12.0992895 124.68878497 13.58137942 118.93661416 16 113 C17.98 113 19.96 113 22 113 C21.34 101.78 20.68 90.56 20 79 C19.278125 81.5575 18.55625 84.115 17.8125 86.75 C9.66125454 114.65958841 -6.09466756 134.41500992 -26 155 C-26 151.14930259 -24.38713676 148.62179371 -22.625 145.3125 C-17.38886537 135.09701902 -15.07343487 125.37565698 -18.125 114 C-24.48648193 95.46999531 -39.01019543 81.81850189 -54.0625 70 C-59.75334195 65.39352823 -65.00756741 60.35714712 -70.25 55.25 C-71.12148682 54.42113281 -71.99297363 53.59226562 -72.89086914 52.73828125 C-73.69516357 51.94292969 -74.49945801 51.14757812 -75.328125 50.328125 C-76.0593457 49.6155957 -76.79056641 48.90306641 -77.54394531 48.16894531 C-79 46 -79 46 -78.83886719 43.40209961 C-74.40493498 30.70551667 -58.99372159 15.46450928 -47.28515625 9.65234375 C-44.8738026 8.66443234 -42.48800041 7.7725896 -40 7 C-39.39414063 6.80664062 -38.78828125 6.61328125 -38.1640625 6.4140625 C-26.93191568 4.26495138 -16.2147881 6.31822212 -6 11 C-4.02 7.37 -2.04 3.74 0 0 Z " fill="#F3C302" transform="translate(273,449)"/>
<path d="M0 0 C1.36705078 -0.00580078 1.36705078 -0.00580078 2.76171875 -0.01171875 C7.78259162 -0.00447362 12.55150508 0.26852972 17.5 1.125 C17.5 1.455 17.5 1.785 17.5 2.125 C15.99373047 2.36283203 15.99373047 2.36283203 14.45703125 2.60546875 C-3.67617166 5.63101361 -19.34400529 11.96900529 -32.5 25.125 C-33.47453125 26.09953125 -33.47453125 26.09953125 -34.46875 27.09375 C-42.91465666 36.13235186 -48.31512785 47.57263351 -48.9375 60 C-48.3272387 76.0956418 -39.30668921 89.91087727 -28.5 101.125 C-27.3890192 102.43173714 -26.28448061 103.74398803 -25.1875 105.0625 C-18.05996136 113.22707082 -9.57545047 120.15683128 -1.16015625 126.9375 C2.38370528 129.85168863 5.77520569 132.91553174 9.16015625 136.01171875 C11.27338444 137.92032718 13.43690356 139.74121895 15.625 141.5625 C23.51885849 148.48357997 32.58182326 159.10710969 33.69287109 170.01928711 C34.20330747 183.53347684 32.84772111 193.99470519 24.5 205.125 C24.17 204.465 23.84 203.805 23.5 203.125 C23.80164063 202.40570312 24.10328125 201.68640625 24.4140625 200.9453125 C27.58691353 192.70503034 25.93991514 182.60428511 22.86328125 174.58984375 C14.65774291 159.75404234 -4.95621166 153.2828001 -19.55029297 146.50268555 C-46.68650738 133.84764074 -67.36173168 116.97089701 -78.88671875 88.7265625 C-83.65676297 74.63401082 -83.49346473 57.78408733 -77.5 44.125 C-76.89865234 42.73474609 -76.89865234 42.73474609 -76.28515625 41.31640625 C-67.86116706 24.10216747 -51.24747959 11.55781332 -33.5 5.125 C-22.45117757 1.63334767 -11.56672698 -0.04908088 0 0 Z " fill="#F3C302" transform="translate(218.5,395.875)"/>
<path d="M0 0 C0.66 0.33 1.32 0.66 2 1 C1.52691406 1.41507812 1.05382812 1.83015625 0.56640625 2.2578125 C-8.78911213 10.97504016 -15.4361164 21.72029745 -19 34 C-19.53367188 35.60488281 -19.53367188 35.60488281 -20.078125 37.2421875 C-21.16014411 41.6527908 -21.34389486 45.66618554 -21.3125 50.1875 C-21.30758545 51.02611572 -21.3026709 51.86473145 -21.29760742 52.72875977 C-20.89559353 74.15094608 -9.9900749 92.35159294 5 107 C20.13929157 121.45310497 38.74398001 129.32498419 57.453125 138.15820312 C69.72132471 143.98559799 79.9811231 149.16689461 86 162 C88.38249416 169.52751224 87.24305584 176.52758419 84.265625 183.67578125 C82.78847511 186.38844848 80.98667552 188.64186624 79 191 C79.05220703 189.71416016 79.05220703 189.71416016 79.10546875 188.40234375 C79.32571045 179.0997539 78.66203152 173.73831431 72.49105835 166.48266602 C69.97528079 163.98104837 66.99411169 162.45242851 63.83203125 160.9375 C63.13672806 160.59807373 62.44142487 160.25864746 61.72505188 159.90893555 C54.42552611 156.49695306 46.86995904 154.47615348 39.06399536 152.58050537 C25.21069331 149.19656599 11.7467288 145.53492408 -1 139 C-1.64356445 138.67290039 -2.28712891 138.34580078 -2.95019531 138.00878906 C-10.96981454 133.85512069 -18.23061819 128.9901724 -25 123 C-25.63421875 122.44828125 -26.2684375 121.8965625 -26.921875 121.328125 C-32.02022313 116.59072187 -35.50445111 110.97738861 -39 105 C-39.5878125 104.04867187 -39.5878125 104.04867187 -40.1875 103.078125 C-48.40715753 88.56529217 -49.84070675 68.20332626 -45.50830078 52.32275391 C-38.38054367 29.69748326 -20.937154 10.91404836 0 0 Z " fill="#F3C303" transform="translate(154,414)"/>
<path d="M0 0 C-0.73935791 0.29132813 -1.47871582 0.58265625 -2.24047852 0.8828125 C-42.97711264 16.79842317 -42.97711264 16.79842317 -71.23242188 49.0234375 C-73.44217735 54.71369841 -73.00220621 61.08955314 -72 67 C-70.59406616 70.22964405 -70.59406616 70.22964405 -69 73 C-68.67 73.99 -68.34 74.98 -68 76 C-66.2965438 77.03921458 -66.2965438 77.03921458 -64 78 C-62.91332031 78.59554687 -61.82664062 79.19109375 -60.70703125 79.8046875 C-45.01712346 88.24215443 -29.22721161 91.19756442 -11.49609375 91.09765625 C-10.5322023 91.0962413 -9.56831085 91.09482635 -8.57521057 91.09336853 C-5.52927402 91.08781942 -2.48341393 91.07527669 0.5625 91.0625 C2.64127497 91.05747841 4.72005111 91.05291666 6.79882812 91.04882812 C11.86591439 91.03786671 16.93294428 91.0206378 22 91 C22 91.33 22 91.66 22 92 C12.04873119 93.94503844 2.08632899 95.82135536 -7.89245605 97.61999512 C-9.83397275 97.97006413 -11.77492411 98.32326476 -13.71582031 98.67675781 C-47.00838955 104.58852244 -86.62376483 106.61044694 -116.8515625 88.61328125 C-121.28651807 85.28303279 -123.39363483 81.87248903 -124.53515625 76.46484375 C-125.27602699 67.10293172 -120.47647573 60.44832354 -114.91796875 53.3359375 C-89.24477864 23.45326937 -46.15493163 10.00533843 -9.35546875 0.16796875 C-8.41727295 -0.08315674 -7.47907715 -0.33428223 -6.51245117 -0.59301758 C-3.95237463 -1.00771465 -2.42868479 -0.83567266 0 0 Z " fill="#F3C303" transform="translate(706,256)"/>
<path d="M0 0 C0.33 0 0.66 0 1 0 C1.01981934 1.0422876 1.03963867 2.0845752 1.06005859 3.15844727 C1.13729681 7.10054948 1.22580921 11.04233781 1.31738281 14.98413086 C1.35519272 16.6761242 1.39011988 18.36818493 1.421875 20.06030273 C1.87541605 43.94916004 4.47722653 69.99858132 20.1875 89.3125 C25.75346702 94.6310907 30.24345214 96.13340363 37.8125 96.25 C38.80894531 96.27578125 39.80539062 96.3015625 40.83203125 96.328125 C51.43054148 95.23037548 59.07650165 86.80290316 65.4921875 78.94921875 C76.45239527 63.72249412 82.68532387 46.52470166 89 29 C89.7545932 26.9229535 90.50977675 24.84612136 91.265625 22.76953125 C91.76497559 21.39631714 91.76497559 21.39631714 92.27441406 19.99536133 C92.6335791 19.00765747 92.6335791 19.00765747 93 18 C93.33 18 93.66 18 94 18 C93.35507018 27.25934956 91.40697702 36.15642619 89.375 45.1875 C89.19703888 45.98346588 89.01907776 46.77943176 88.83572388 47.59951782 C81.04860862 82.27207799 69.15762639 126.50683497 38 148 C35.13439254 148.66619795 32.4297918 148.65775685 29.5 148.5625 C28.76652344 148.57345703 28.03304687 148.58441406 27.27734375 148.59570312 C22.10581289 148.52631765 19.07873591 147.39995668 15 144 C12.94393752 141.55408671 11.52219444 138.80455761 10 136 C9.58878906 135.29230469 9.17757813 134.58460938 8.75390625 133.85546875 C2.8116556 122.98911009 0.19471887 110.60621914 -2.25 98.5625 C-2.41314697 97.75893066 -2.57629395 96.95536133 -2.74438477 96.12744141 C-4.81625984 85.40750022 -5.26998487 74.78068114 -5.3125 63.875 C-5.31611542 63.15776764 -5.31973083 62.44053528 -5.32345581 61.7015686 C-5.36370673 41.43814697 -4.36263824 19.83921257 0 0 Z " fill="#F3C304" transform="translate(408,50)"/>
<path d="M0 0 C0.89120544 -0.00952194 1.78241089 -0.01904388 2.70062256 -0.02885437 C5.6116454 -0.05345292 8.52248055 -0.06588589 11.43359375 -0.07421875 C12.42442963 -0.0781665 13.4152655 -0.08211426 14.43612671 -0.08618164 C34.11924151 -0.12264176 53.38535487 1.57089695 72.87109375 4.23828125 C72.87109375 4.89828125 72.87109375 5.55828125 72.87109375 6.23828125 C71.6493042 6.26801025 71.6493042 6.26801025 70.40283203 6.29833984 C24.04377733 6.68438535 24.04377733 6.68438535 -15.12890625 29.23828125 C-19.57290372 35.58684907 -18.72332228 43.77505781 -18.12890625 51.23828125 C-15.91063084 62.03388823 -4.71793767 69.35294079 3.703125 75.20703125 C20.38009304 85.99675126 39.03431739 92.32923035 57.87109375 98.23828125 C57.87109375 98.56828125 57.87109375 98.89828125 57.87109375 99.23828125 C48.93469019 98.533582 40.28477512 96.5113331 31.55859375 94.55078125 C30.75296997 94.37021179 29.94734619 94.18964233 29.11730957 94.00360107 C-6.78793606 85.92086115 -49.42882061 73.78840971 -71.12890625 41.23828125 C-71.90439015 34.34956714 -71.6840344 28.24522192 -68.12890625 22.23828125 C-64.31075023 17.84353445 -60.45845986 15.5807138 -55.25390625 13.23828125 C-54.13060913 12.72454956 -54.13060913 12.72454956 -52.98461914 12.20043945 C-40.70704179 6.69866432 -28.37699464 3.39055028 -15.12890625 1.23828125 C-14.25379395 1.06627197 -13.37868164 0.8942627 -12.47705078 0.71704102 C-8.30071932 0.11985668 -4.21383129 0.03804499 0 0 Z " fill="#F3C303" transform="translate(656.12890625,372.76171875)"/>
<path d="M0 0 C0.495 0.99 0.495 0.99 1 2 C0.04746097 4.52894548 -0.97022992 6.96932864 -2.0625 9.4375 C-7.30086772 21.70529984 -12.14871008 34.72841515 -14 48 C-14.16435547 49.09828125 -14.16435547 49.09828125 -14.33203125 50.21875 C-15.90113883 62.77161062 -17.2038285 79.1101263 -10.59375 90.40234375 C-6.02009641 96.19491917 0.14497768 100.12221197 7.44140625 101.44140625 C22.01327202 102.16649106 37.95634947 92.86428548 48.5 83.375 C50.00404579 81.92083964 51.50443192 80.46287807 53 79 C54.26472816 77.93024008 55.53541783 76.86748092 56.8125 75.8125 C61.92667681 71.3767344 66.39122066 66.29691277 70.94921875 61.3046875 C73.55736707 58.45390161 76.24509057 55.70890909 79 53 C77.55040826 57.04106137 75.59364849 60.36727346 73.21875 63.9375 C72.84898544 64.494944 72.47922089 65.052388 72.09825134 65.62672424 C70.90443976 67.42163326 69.70301766 69.21125035 68.5 71 C67.88791183 71.91372879 67.88791183 71.91372879 67.26345825 72.84591675 C59.50597207 84.41636254 51.54428695 95.47384981 42.078125 105.734375 C40.18181669 107.8017788 38.36970394 109.91750093 36.5625 112.0625 C23.33764841 127.12916882 0.85257559 145.04990936 -19.9375 146.5625 C-25.8401908 146.37804091 -30.54459303 143.76870204 -35 140 C-42.93411742 129.54711515 -39.93864864 106.72226312 -38.69970703 93.88964844 C-37.89624933 88.14364648 -36.59719204 82.57364945 -35 77 C-34.79101074 76.26104492 -34.58202148 75.52208984 -34.36669922 74.76074219 C-29.01724034 56.40027732 -20.81030678 38.92516089 -12 22 C-11.53706543 21.10555176 -11.07413086 20.21110352 -10.59716797 19.28955078 C-9.08960175 16.37843894 -7.577411 13.46979604 -6.0625 10.5625 C-5.5773291 9.63115234 -5.0921582 8.69980469 -4.59228516 7.74023438 C-4.14030762 6.87849609 -3.68833008 6.01675781 -3.22265625 5.12890625 C-2.61562866 3.96983765 -2.61562866 3.96983765 -1.99633789 2.78735352 C-1 1 -1 1 0 0 Z " fill="#F3C303" transform="translate(531,80)"/>
<path d="M0 0 C1.87942397 2.81913595 2.39895159 4.13988387 3.02148438 7.34106445 C3.28185486 8.65437492 3.28185486 8.65437492 3.54748535 9.99421692 C3.72775269 10.94100815 3.90802002 11.88779938 4.09375 12.86328125 C4.28594116 13.84685104 4.47813232 14.83042084 4.67614746 15.84379578 C5.08273612 17.93210326 5.48600739 20.02105892 5.88623047 22.1105957 C6.49059679 25.26344546 7.10568652 28.41404833 7.72265625 31.56445312 C8.85288628 37.36952903 9.94489056 43.18080602 11 49 C11.18988495 50.04338531 11.18988495 50.04338531 11.38360596 51.10784912 C13.14656049 61.06399049 13.40282717 70.91947794 13.375 81 C13.37318726 82.21839066 13.37318726 82.21839066 13.37133789 83.46139526 C13.28905168 103.89471796 11.9800863 131.22215762 -3 147 C-7.27906423 150.19784457 -12.10972736 151.84669514 -17.453125 151.5703125 C-32.90031553 148.11127904 -44.6536527 134.64135358 -53 122 C-58.51645504 113.12644274 -63.22061206 103.7821159 -67.75 94.375 C-68.09039307 93.67294434 -68.43078613 92.97088867 -68.78149414 92.24755859 C-74.69237059 79.66402887 -79.02061783 66.3049079 -83.5246582 53.16894531 C-84.32451571 50.84001405 -85.13190752 48.51377505 -85.93945312 46.1875 C-86.45618599 44.68505287 -86.9724789 43.18245434 -87.48828125 41.6796875 C-87.72678299 40.99526581 -87.96528473 40.31084412 -88.21101379 39.60568237 C-89.52147182 35.75616148 -90.45151541 32.0295074 -91 28 C-88.03460475 29.48269763 -87.64682939 31.6200171 -86.3125 34.625 C-85.51912231 36.38577881 -85.51912231 36.38577881 -84.7097168 38.18212891 C-84.43090668 38.8058136 -84.15209656 39.42949829 -83.86483765 40.07208252 C-73.90348884 62.27816774 -62.61607581 86.4227342 -39.7890625 97.96484375 C-32.36483618 100.72033391 -25.34746056 99.48065151 -18.28515625 96.24609375 C-8.18984269 90.74112789 -5.30875965 82.22769452 -1.8125 71.6875 C1.57121105 59.94000088 2.33763127 48.23698648 2.25 36.0625 C2.24613281 34.75087891 2.24226563 33.43925781 2.23828125 32.08789062 C2.16768004 24.20016692 1.80998722 16.58992755 0.4375 8.8125 C-0.02582341 5.83399234 -0.0716539 3.00946372 0 0 Z " fill="#F3C303" transform="translate(376,52)"/>
<path d="M0 0 C0 3 0 3 -2 5.1875 C-2.99391855 6.131445 -3.99466361 7.06822481 -5 8 C-12.18341632 14.69585413 -18.09916065 22.18593494 -24 30 C-24.66386719 30.86882812 -25.32773437 31.73765625 -26.01171875 32.6328125 C-36.19607654 46.50184805 -44.10090945 63.45842597 -42 81 C-39.01313229 89.06784931 -33.30688001 94.46537074 -25.64453125 98.125 C-3.71413034 105.38114447 27.19321148 90.51183327 46.47729492 80.82519531 C48.25212473 79.91643641 50.02084493 78.99562099 51.7824707 78.06152344 C52.56968506 77.64805664 53.35689941 77.23458984 54.16796875 76.80859375 C54.86172607 76.43532959 55.5554834 76.06206543 56.27026367 75.67749023 C56.84107666 75.45391846 57.41188965 75.23034668 58 75 C58.66 75.33 59.32 75.66 60 76 C24.353431 101.3094066 -13.55422268 127.37454349 -58.75 128.5 C-59.73307129 128.54294189 -60.71614258 128.58588379 -61.72900391 128.63012695 C-67.98029066 128.68682196 -71.56029065 127.68168803 -76.35864258 123.6184082 C-81.17870572 118.86573847 -83.37946504 115.17931451 -83.98901367 108.39282227 C-84.00681387 104.51593933 -82.99518615 101.24539902 -81.6875 97.625 C-81.41969727 96.85897461 -81.15189453 96.09294922 -80.87597656 95.30371094 C-68.00991969 60.13268089 -40.62377615 33.03363159 -12.25 9.75 C-11.50878906 9.13898438 -10.76757812 8.52796875 -10.00390625 7.8984375 C-6.71595838 5.19488252 -3.41990055 2.53599947 0 0 Z " fill="#F3C303" transform="translate(633,151)"/>
<path d="M0 0 C1.10166504 0.27408691 1.10166504 0.27408691 2.22558594 0.55371094 C17.19055737 4.37495522 31.02521621 10.51332973 45 17 C46.02689941 17.47163574 47.05379883 17.94327148 48.11181641 18.42919922 C60.16876087 23.98019723 71.81290518 29.84238009 83 37 C79.03971136 38.32009621 77.57100536 37.32641456 73.70703125 35.83203125 C72.43102402 35.34740282 71.15498099 34.86286862 69.87890625 34.37841797 C69.21391113 34.12203552 68.54891602 33.86565308 67.86376953 33.60150146 C56.74948041 29.32649505 45.72598155 25.26662015 34 23 C33.04351563 22.81179688 32.08703125 22.62359375 31.1015625 22.4296875 C18.28879629 20.65461913 3.64881921 20.95947132 -7.31640625 28.55078125 C-12.35500859 32.88795403 -15.3941988 38.33999078 -16.25390625 44.953125 C-17.09824692 60.09678352 -6.9552014 76.27488674 2.59375 87.328125 C3.3878125 88.20984375 4.181875 89.0915625 5 90 C5.8559375 90.96421875 6.711875 91.9284375 7.59375 92.921875 C12.35630578 98.23316004 17.28500341 103.37695366 22.3125 108.4375 C22.79178955 108.9214624 23.2710791 109.4054248 23.76489258 109.90405273 C27.02629296 113.15077991 30.43518851 116.09865416 34 119 C30.55548942 119 29.88818126 118.45790537 27.19140625 116.47265625 C26.45027588 115.9322168 25.70914551 115.39177734 24.94555664 114.83496094 C24.15914795 114.25004883 23.37273926 113.66513672 22.5625 113.0625 C21.75353271 112.46856445 20.94456543 111.87462891 20.11108398 111.26269531 C17.7355404 109.51535366 15.36732518 107.75845162 13 106 C11.84406666 105.14930914 10.68785768 104.29899256 9.53125 103.44921875 C0.02603644 96.4078566 -9.0544912 88.9651216 -17.7890625 80.98828125 C-19.55080083 79.4039618 -21.33088787 77.90609002 -23.1875 76.4375 C-26.86647787 73.24905251 -29.9051532 69.75043457 -33 66 C-33.41443359 65.50322754 -33.82886719 65.00645508 -34.25585938 64.49462891 C-45.75275185 50.63780432 -57.30226367 33.99667089 -59.375 15.6875 C-58.87334392 10.75454855 -56.93184315 7.89820486 -54 4 C-53.319375 3.05125 -52.63875 2.1025 -51.9375 1.125 C-39.40221004 -7.9430821 -14.02383871 -3.59365003 0 0 Z " fill="#F3C303" transform="translate(618,462)"/>
<path d="M0 0 C0.33 0 0.66 0 1 0 C1.02578125 0.95777344 1.0515625 1.91554688 1.078125 2.90234375 C1.81771101 22.50510831 6.54806781 42.00224675 20 57 C20.62003906 57.7115625 21.24007812 58.423125 21.87890625 59.15625 C39.70034562 78.32332291 67.70250688 87.68136757 92.56738281 93.2097168 C105.30997834 96.10675341 119.61367836 100.42400489 127.15234375 111.94921875 C129.16928782 116.82892214 129.05140983 122.38726913 127.08984375 127.26171875 C126 129.1875 126 129.1875 124 132 C123.67 132 123.34 132 123 132 C122.87625 131.39671875 122.7525 130.7934375 122.625 130.171875 C121.41231135 125.31066677 121.41231135 125.31066677 118.265625 121.58203125 C116.18853432 120.5314098 114.21611404 119.71763425 112 119 C111.01 118.65710938 110.02 118.31421875 109 117.9609375 C103.70168922 116.47811692 98.21483842 116.39455793 92.75 116.0625 C63.07248418 113.98121428 32.48525128 108.54229493 11.0625 86.0625 C7.07332371 81.39645986 4.33303986 76.65978189 2 71 C1.63132812 70.12472656 1.26265625 69.24945312 0.8828125 68.34765625 C-3.51833886 57.1520267 -4.38775613 45.87962803 -4.375 33.9375 C-4.37628906 32.67848877 -4.37757812 31.41947754 -4.37890625 30.12231445 C-4.2616433 19.68258082 -2.79920462 10.0346487 0 0 Z " fill="#F3C303" transform="translate(101,477)"/>
<path d="M0 0 C3.4890081 1.66463519 6.74668276 3.6410426 10.0625 5.625 C23.47523706 13.3991473 37.76253338 19.07334471 53 22 C53.8770459 22.17370117 54.7540918 22.34740234 55.65771484 22.52636719 C64.53649145 24.16042586 73.27881026 24.39722627 82.28515625 24.56640625 C99.335621 25.01052934 99.335621 25.01052934 106 32 C107.19686382 34.99215956 107.13465057 36.44793264 106.375 39.5625 C103.23620887 45.12672065 97.94799956 47.33543351 92 49 C88.86231995 49.42795898 85.78865268 49.47743566 82.625 49.4375 C81.75649414 49.42847656 80.88798828 49.41945313 79.99316406 49.41015625 C64.4299299 49.00312652 51.42092659 44.69110771 38 37 C37.01515625 36.45472656 36.0303125 35.90945313 35.015625 35.34765625 C21.23114017 27.20046796 8.76742794 14.29255204 0 1 C0 0.67 0 0.34 0 0 Z " fill="#F3C404" transform="translate(113,572)"/>
<path d="M0 0 C10.56 0 21.12 0 32 0 C32 2.64 32 5.28 32 8 C24.41 8 16.82 8 9 8 C9 11.3 9 14.6 9 18 C15.6 18 22.2 18 29 18 C29 20.64 29 23.28 29 26 C22.4 26 15.8 26 9 26 C9 29.3 9 32.6 9 36 C16.92 36 24.84 36 33 36 C33 38.64 33 41.28 33 44 C22.11 44 11.22 44 0 44 C0 29.48 0 14.96 0 0 Z " fill="#000000" transform="translate(503,565)"/>
<path d="M0 0 C2.28118673 1.31758199 2.85657385 2.63714451 3.8125 5.046875 C1.8325 8.016875 1.8325 8.016875 -0.1875 11.046875 C-1.156875 10.551875 -2.12625 10.056875 -3.125 9.546875 C-7.47478381 7.64830133 -11.51780204 7.76097512 -16.1875 8.046875 C-16.5175 9.366875 -16.8475 10.686875 -17.1875 12.046875 C-14.16335717 14.09548789 -11.27478294 15.40722031 -7.8125 16.484375 C2.35450909 19.74324937 2.35450909 19.74324937 4.984375 23.8984375 C6.76753777 28.52456733 6.49822211 33.38670569 4.625 37.921875 C0.96555133 42.21226309 -3.17446554 43.70995421 -8.6328125 44.3203125 C-15.74262307 44.58978054 -21.35906613 43.30427011 -27.1875 39.046875 C-27.6825 37.561875 -27.6825 37.561875 -28.1875 36.046875 C-26.25 33.359375 -26.25 33.359375 -24.1875 31.046875 C-21.42355022 31.67198116 -18.96840884 32.54155017 -16.375 33.671875 C-12.21754149 35.28649772 -9.49395753 35.03377152 -5.1875 34.046875 C-5.1875 32.396875 -5.1875 30.746875 -5.1875 29.046875 C-9.37122615 26.79409938 -13.52024978 25.19617902 -18.0390625 23.79296875 C-21.7230721 22.51361269 -23.73091854 21.73174719 -25.9375 18.421875 C-27.78015403 13.44670913 -28.0886869 9.37935874 -26.125 4.296875 C-18.91047957 -4.08127775 -9.709999 -3.12107111 0 0 Z " fill="#080808" transform="translate(488.1875,565.953125)"/>
<path d="M0 0 C5.2153893 1.27890416 8.20281577 5.0699996 11.18359375 9.30078125 C13.28787317 15.73740064 13.06980781 22.48442163 10.34375 28.72265625 C7.84964767 32.87653486 4.79768135 35.88358167 0.03515625 37.12890625 C-4.29743772 37.45422047 -7.17342817 36.70435513 -10.62890625 34.05078125 C-15.43322562 29.27990262 -16.86839745 24.14024365 -17.19140625 17.48828125 C-16.95999657 10.92831987 -14.48924413 7.44754591 -10.06640625 2.61328125 C-6.38157737 0.31895383 -4.26754439 -0.25187867 0 0 Z " fill="#F9F9F9" transform="translate(547.75390625,633.44921875)"/>
<path d="M0 0 C1.43034568 0.80962963 2.85277608 1.63446306 4.25 2.5 C4.25 6.40838866 2.74432124 7.61594107 0.25 10.5 C-2.71175123 9.88722388 -4.13058783 9.24627478 -6.75 7.5 C-11.54689791 6.80079115 -15.52459282 6.78517915 -19.75 9.25 C-23.67249871 13.66281105 -24.18506492 17.24238324 -24.07421875 23.0234375 C-23.60052678 26.64175926 -22.12324418 28.78772094 -19.75 31.5 C-15.72487177 34.18341882 -12.48004848 34.07561436 -7.75 33.5 C-4.98558031 32.09240659 -4.98558031 32.09240659 -2.75 30.5 C1.25 30.5 1.25 30.5 3.5 32.5 C4.0775 33.16 4.655 33.82 5.25 34.5 C3.97168567 38.47697791 1.56875268 39.75108607 -1.8984375 41.66796875 C-7.24487872 44.07048348 -13.00017984 44.2975312 -18.75 43.5 C-24.93838794 41.00565674 -29.81193102 37.62097704 -32.75 31.5 C-35.24116298 24.67826881 -36.21490191 17.17066013 -33.25 10.375 C-26.32415193 -1.94857308 -12.67044621 -6.3622582 0 0 Z " fill="#070707" transform="translate(576.75,566.5)"/>
<path d="M0 0 C10.89 0 21.78 0 33 0 C33 2.97 33 5.94 33 9 C25.08 9 17.16 9 9 9 C9 11.97 9 14.94 9 18 C15.93 18 22.86 18 30 18 C30 20.97 30 23.94 30 27 C23.07 27 16.14 27 9 27 C9 32.61 9 38.22 9 44 C6.03 44 3.06 44 0 44 C0 29.48 0 14.96 0 0 Z " fill="#050505" transform="translate(422,565)"/>
<path d="M0 0 C3.57444856 1.72103079 5.46966849 3.31056903 7.875 6.4375 C10.00742856 13.19019043 10.35562026 20.94014118 7.375 27.5 C5.06152529 31.3047389 2.83625066 33.68377319 -1 36 C-5.68521401 36.95050123 -9.53429013 36.65690438 -13.5625 34 C-14.366875 33.34 -15.17125 32.68 -16 32 C-15.67 31.01 -15.34 30.02 -15 29 C-14.360625 29.33 -13.72125 29.66 -13.0625 30 C-8.96877182 31.33672757 -5.26186661 31.76474616 -1 31 C2.34820754 28.23772878 2.91240817 26.44525847 3.75 22.1875 C3.8325 21.135625 3.915 20.08375 4 19 C3.45085937 19.48210938 2.90171875 19.96421875 2.3359375 20.4609375 C-1.80732434 23.19077891 -6.24054542 22.95463808 -11 22 C-13.88857286 20.13480724 -15.51840343 18.08967089 -17 15 C-17.61196879 11.05620115 -17.38686787 8.89590453 -15.8125 5.25 C-11.47260336 -0.1374579 -6.62154115 -1.03936007 0 0 Z " fill="#131313" transform="translate(410,634)"/>
<path d="M0 0 C5.2153893 1.27890416 8.20281577 5.0699996 11.18359375 9.30078125 C13.28787317 15.73740064 13.06980781 22.48442163 10.34375 28.72265625 C7.84964767 32.87653486 4.79768135 35.88358167 0.03515625 37.12890625 C-4.29743772 37.45422047 -7.17342817 36.70435513 -10.62890625 34.05078125 C-15.43322562 29.27990262 -16.86839745 24.14024365 -17.19140625 17.48828125 C-16.95999657 10.92831987 -14.48924413 7.44754591 -10.06640625 2.61328125 C-6.38157737 0.31895383 -4.26754439 -0.25187867 0 0 Z M-9.75390625 7.30078125 C-13.11446725 12.76169287 -13.50249819 18.22268404 -12.75390625 24.55078125 C-11.01851523 27.79017781 -9.33069491 29.97399259 -6.75390625 32.55078125 C-2.51903591 33.25386783 1.10959121 33.3375907 4.68359375 30.86328125 C8.59538316 25.07383293 9.08712993 19.37919407 8.24609375 12.55078125 C6.87661597 9.28212202 4.7438951 7.0485826 2.24609375 4.55078125 C-2.43527384 3.59427392 -6.49507561 3.51633276 -9.75390625 7.30078125 Z " fill="#101010" transform="translate(547.75390625,633.44921875)"/>
<path d="M0 0 C6.27 0 12.54 0 19 0 C19 0.99 19 1.98 19 3 C13.72 3 8.44 3 3 3 C3.33 6.3 3.66 9.6 4 13 C6.3203125 12.9071875 6.3203125 12.9071875 8.6875 12.8125 C12.96122798 12.82458975 15.71342322 13.0215398 19 16 C21.07542068 19.65669358 21.50909933 22.84235546 21 27 C18.96006092 30.6578218 17.49580738 32.66946174 14 35 C9.22784571 35.7063774 4.56080552 35.79488721 0.375 33.1875 C-0.40875 32.465625 -1.1925 31.74375 -2 31 C-2 30.01 -2 29.02 -2 28 C1 28 1 28 3.6875 29.5625 C8.0495023 31.45544439 10.38695916 30.87488706 15 30 C15.33 26.7 15.66 23.4 16 20 C13.53433952 17.94528294 11.75326124 16.98226229 8.51171875 17.05859375 C6.73964019 17.26631931 4.9707397 17.50372496 3.20703125 17.7734375 C1 18 1 18 -1 17 C-0.67 11.39 -0.34 5.78 0 0 Z " fill="#0C0C0C" transform="translate(598,635)"/>
<path d="M0 0 C6.27 0 12.54 0 19 0 C19 0.99 19 1.98 19 3 C13.72 3 8.44 3 3 3 C3.33 6.3 3.66 9.6 4 13 C6.3203125 12.9071875 6.3203125 12.9071875 8.6875 12.8125 C12.96122798 12.82458975 15.71342322 13.0215398 19 16 C21.07542068 19.65669358 21.50909933 22.84235546 21 27 C18.96006092 30.6578218 17.49580738 32.66946174 14 35 C9.22784571 35.7063774 4.56080552 35.79488721 0.375 33.1875 C-0.40875 32.465625 -1.1925 31.74375 -2 31 C-2 30.01 -2 29.02 -2 28 C1 28 1 28 3.6875 29.5625 C8.0495023 31.45544439 10.38695916 30.87488706 15 30 C15.33 26.7 15.66 23.4 16 20 C13.53433952 17.94528294 11.75326124 16.98226229 8.51171875 17.05859375 C6.73964019 17.26631931 4.9707397 17.50372496 3.20703125 17.7734375 C1 18 1 18 -1 17 C-0.67 11.39 -0.34 5.78 0 0 Z " fill="#0C0C0C" transform="translate(455,635)"/>
<path d="M0 0 C3 2.4375 3 2.4375 5 5 C5.33 5.33 5.66 5.66 6 6 C6.58739671 9.23068191 6.79593285 10.88259633 6 14 C3.3737505 17.71671396 0.24575023 20.82308297 -3 24 C-3.92232422 24.97453125 -3.92232422 24.97453125 -4.86328125 25.96875 C-6.18972421 27.36431282 -7.58787591 28.69120206 -9 30 C-9.66 30 -10.32 30 -11 30 C-11 30.66 -11 31.32 -11 32 C-5.39 32 0.22 32 6 32 C6 32.99 6 33.98 6 35 C-1.92 35 -9.84 35 -18 35 C-16.78571809 30.14287235 -14.37543148 28.27444485 -10.75 25.125 C-2.69157903 18.64115078 -2.69157903 18.64115078 1.4375 9.75 C1.25410159 6.86261651 1.25410159 6.86261651 -1 5 C-3.92970368 4.71648029 -6.15395218 4.50676064 -9 5 C-11.22977996 6.97901574 -11.22977996 6.97901574 -13 9 C-15.25 8.75 -15.25 8.75 -17 8 C-14.36340725 0.6175403 -7.13197569 -1.57612722 0 0 Z " fill="#111111" transform="translate(583,634)"/>
<path d="M0 0 C3 2.4375 3 2.4375 5 5 C5.33 5.33 5.66 5.66 6 6 C6.58739671 9.23068191 6.79593285 10.88259633 6 14 C3.3737505 17.71671396 0.24575023 20.82308297 -3 24 C-3.92232422 24.97453125 -3.92232422 24.97453125 -4.86328125 25.96875 C-6.18972421 27.36431282 -7.58787591 28.69120206 -9 30 C-9.66 30 -10.32 30 -11 30 C-11 30.66 -11 31.32 -11 32 C-5.39 32 0.22 32 6 32 C6 32.99 6 33.98 6 35 C-1.92 35 -9.84 35 -18 35 C-16.78571809 30.14287235 -14.37543148 28.27444485 -10.75 25.125 C-2.69157903 18.64115078 -2.69157903 18.64115078 1.4375 9.75 C1.25410159 6.86261651 1.25410159 6.86261651 -1 5 C-3.92970368 4.71648029 -6.15395218 4.50676064 -9 5 C-11.22977996 6.97901574 -11.22977996 6.97901574 -13 9 C-15.25 8.75 -15.25 8.75 -17 8 C-14.36340725 0.6175403 -7.13197569 -1.57612722 0 0 Z " fill="#111111" transform="translate(519,634)"/>
<path d="M0 0 C0.2475 0.53625 0.495 1.0725 0.75 1.625 C4.22733289 8.23193249 7.17846972 11.18529091 14 14 C12.0614922 15.29233853 10.08267939 16.52697141 8.0625 17.6875 C4.34114439 20.49750321 3.06452414 22.87095172 1 27 C-1.00312018 25.10230719 -2.58109472 23.22520704 -4.25 21 C-7.02790901 17.5849559 -9.89245527 16.44972167 -14 15 C-12 13 -12 13 -9.125 11.6875 C-4.07696784 8.96156263 -1.83208736 5.34358812 0 0 Z " fill="#F3C50A" transform="translate(217,411)"/>
<path d="M0 0 C2.5625 1.5625 2.5625 1.5625 4 4 C4.73990968 10.02497883 4.73990968 10.02497883 2.74609375 12.65234375 C-0.44375241 15.11430555 -4.06538125 15.33764679 -8 15 C-11.0625 12.9375 -11.0625 12.9375 -13 10 C-13.6646293 6.38146271 -13.46543651 4.76898205 -11.5625 1.625 C-7.77365246 -0.7776838 -4.36526609 -0.77693727 0 0 Z " fill="#F8F8F8" transform="translate(410,638)"/>
<path d="M0 0 C7.59 0 15.18 0 23 0 C22.12737201 5.23576792 21.17882654 8.11725959 18.83984375 12.7109375 C18.53051407 13.32393707 18.22118439 13.93693665 17.90248108 14.56851196 C16.92166085 16.50792613 15.92981374 18.44144573 14.9375 20.375 C14.2668389 21.69623961 13.59690944 23.01785087 12.92773438 24.33984375 C11.29359525 27.56423725 9.6495238 30.78344445 8 34 C6.35 34 4.7 34 3 34 C3.49628906 33.01902344 3.99257813 32.03804687 4.50390625 31.02734375 C9.17510837 21.75893875 13.6505022 12.42391189 18 3 C12.06 3 6.12 3 0 3 C0 2.01 0 1.02 0 0 Z " fill="#0C0C0C" transform="translate(425,635)"/>
<path d="M0 0 C0 11.22 0 22.44 0 34 C-1.32 34 -2.64 34 -4 34 C-4 24.1 -4 14.2 -4 4 C-6.31 4.33 -8.62 4.66 -11 5 C-10 2 -10 2 -7.75 0.8125 C-5 0 -5 0 0 0 Z " fill="#030303" transform="translate(385,635)"/>
<path d="M0 0 C4.62 0 9.24 0 14 0 C14 1.32 14 2.64 14 4 C9.38 4 4.76 4 0 4 C0 2.68 0 1.36 0 0 Z " fill="#040404" transform="translate(482,652)"/>
<path d="M0 0 C0.83917969 0.19078125 1.67835938 0.3815625 2.54296875 0.578125 C3.86361328 0.87589844 3.86361328 0.87589844 5.2109375 1.1796875 C8.10568601 1.92469254 10.92553118 2.79472695 13.73046875 3.828125 C13.73046875 4.158125 13.73046875 4.488125 13.73046875 4.828125 C7.29072294 4.20492379 1.05474474 3.18804238 -5.26953125 1.828125 C-2.26953125 -0.171875 -2.26953125 -0.171875 0 0 Z " fill="#F5CF32" transform="translate(700.26953125,467.171875)"/>
<path d="M0 0 C0.33 0.66 0.66 1.32 1 2 C0.26821134 4.07196631 -0.55899003 6.1108552 -1.4375 8.125 C-1.91058594 9.22070312 -2.38367188 10.31640625 -2.87109375 11.4453125 C-3.24363281 12.28835937 -3.61617187 13.13140625 -4 14 C-4.99 14 -5.98 14 -7 14 C-5.23570801 9.02790438 -2.6060834 4.56561939 0 0 Z " fill="#F4CB23" transform="translate(531,80)"/>
<path d="M0 0 C0.33 0 0.66 0 1 0 C0.88512252 1.58409994 0.75765492 3.16728963 0.625 4.75 C0.55539062 5.63171875 0.48578125 6.5134375 0.4140625 7.421875 C0.00149945 9.99066382 -0.71160957 11.75841015 -2 14 C-2.66 13.67 -3.32 13.34 -4 13 C-3.52343588 11.20763933 -3.04366502 9.41613103 -2.5625 7.625 C-2.29566406 6.62726563 -2.02882813 5.62953125 -1.75390625 4.6015625 C-1 2 -1 2 0 0 Z " fill="#F5CF35" transform="translate(501,68)"/>
<path d="M0 0 C3.45925163 1.2491742 6.14693203 2.67527795 9 5 C5.0507432 4.44894091 1.65079826 3.61064629 -2 2 C-1.34 1.34 -0.68 0.68 0 0 Z " fill="#F5CF35" transform="translate(692,495)"/>
<path d="M0 0 C0.66 0.33 1.32 0.66 2 1 C1.54625 1.598125 1.0925 2.19625 0.625 2.8125 C-0.63295913 4.50590652 -1.82984724 6.24477086 -3 8 C-3.99 7.67 -4.98 7.34 -6 7 C-4.02 4.69 -2.04 2.38 0 0 Z " fill="#F6F3E9" transform="translate(306,242)"/>
</svg>
